<svg width="1141" height="504" viewBox="0 0 1141 504" fill="none" xmlns="http://www.w3.org/2000/svg">
<g clip-path="url(#clip0_19_4)">
<path d="M107.329 101.341H48.5086L166.586 352.068L159.368 367.729L149.315 389.086L-0.659363 70.4824H127.194L213.254 253.246L196.061 289.777L107.329 101.341Z" fill="#5850EC"/>
<path d="M159.383 367.733L149.52 389.127L149.434 389.309L149.385 389.206L149.329 389.09L159.383 367.733Z" fill="#5850EC"/>
<path d="M149.507 389.126L149.421 389.309H149.213L149.373 389.206L149.507 389.126Z" fill="#322F2F"/>
<path d="M427.262 70.4824L407.642 112.16L393.111 143.019L277.17 389.281L277.158 389.306H230.824L245.33 358.448H256.904L358.142 143.019L372.648 112.16L377.73 101.341H319.434L198.232 358.758L198.731 358.448H210.361L195.83 389.306H149.409L149.495 389.123L159.357 367.729L196.051 289.777L213.243 253.246L299.278 70.4824H427.262Z" fill="#2F2F32"/>
<path d="M277.188 389.302H277.162L277.175 389.276L277.188 389.302Z" fill="#322F2F"/>
<path d="M326.324 112.163L326.308 112.194L326.292 112.163H326.324Z" fill="#5850EC"/>
<path d="M159.37 367.733L149.508 389.127L149.422 389.309H149.213L149.317 389.09L159.37 367.733Z" fill="#322F2F"/>
<path d="M454.294 112.163L304.216 430.987H176.232L195.851 389.308L210.382 358.45L326.324 112.187L326.336 112.163H372.67L358.164 143.021H346.589L245.352 358.45L230.846 389.308L225.763 400.127H284.06L405.261 142.711L404.763 143.021H393.133L407.664 112.163H454.294Z" fill="#5850EC"/>
</g>
<path d="M563.536 409H596.384V291.045C596.384 275.741 591.532 262.303 582.2 251.478C564.656 230.947 539.647 220.869 506.798 220.496C478.803 220.496 453.42 228.708 430.65 245.505L447.074 271.261C462.378 258.197 482.162 251.851 506.425 251.851C520.236 251.851 533.301 255.21 545.619 261.929C557.564 268.648 563.536 278.353 563.536 291.045V305.229C550.098 295.897 525.462 288.059 504.932 288.059C479.922 288.059 459.392 294.031 443.341 306.349C427.291 318.667 419.452 333.598 419.452 351.889C419.452 370.179 427.291 385.11 442.968 396.309C458.272 407.88 478.429 413.479 503.065 413.479C527.328 413.479 547.485 406.76 563.536 393.322V409ZM504.559 385.484C472.084 385.484 450.434 370.926 450.434 350.769C450.434 330.612 470.59 315.681 506.425 315.681C526.955 315.681 549.725 324.64 563.536 336.211V363.46C547.112 378.018 527.328 385.484 504.559 385.484ZM677.598 409V117.845H643.63V409H677.598ZM763.627 409V223.109H729.658V409H763.627ZM768.106 151.44C768.106 139.868 758.401 130.536 746.829 130.536C734.884 130.536 725.926 139.868 725.926 151.813C725.926 163.758 734.884 173.09 746.829 173.09C758.401 173.09 768.106 163.385 768.106 151.44ZM888.476 413.479C912.739 413.479 932.522 408.253 948.573 397.428C964.624 386.603 972.463 372.419 972.463 354.502C972.463 325.76 952.679 307.842 913.112 300.003L863.839 291.418C854.881 289.552 848.535 287.312 845.176 284.326C837.71 278.353 839.203 270.141 839.203 269.768C839.203 257.077 857.867 248.491 885.116 248.491C905.646 248.491 925.803 254.464 946.333 266.409L962.384 239.906C941.107 226.095 916.471 219.003 888.849 219.003C833.604 219.003 807.101 241.026 807.101 272.381C807.101 299.257 824.272 316.054 858.24 322.773L911.245 332.852C930.282 336.585 939.988 344.423 939.988 356.368C939.988 372.792 920.577 383.991 889.222 383.991C861.973 383.991 836.217 376.525 812.701 361.221L795.53 388.47C824.272 405.267 855.254 413.479 888.476 413.479ZM1016.79 253.717V409H1050.38V253.717H1081.36V223.109H1050.38V133.523L1016.79 153.679V223.109H986.178V253.717H1016.79Z" fill="black"/>
<defs>
<clipPath id="clip0_19_4">
<rect width="459.129" height="503.922" fill="white" transform="translate(-0.000915527 0.000183105)"/>
</clipPath>
</defs>
</svg>
