<svg width="1141" height="504" viewBox="0 0 1141 504" fill="none" xmlns="http://www.w3.org/2000/svg">
<g clip-path="url(#clip0_19_17)">
<path d="M107.335 101.341H48.5148L166.593 352.068L159.374 367.729L149.321 389.086L-0.653198 70.4824H127.201L213.26 253.246L196.068 289.777L107.335 101.341Z" fill="#5850EC"/>
<path d="M159.389 367.733L149.526 389.127L149.441 389.309L149.391 389.206L149.335 389.09L159.389 367.733Z" fill="#5850EC"/>
<path d="M149.513 389.126L149.427 389.309H149.219L149.379 389.206L149.513 389.126Z" fill="#322F2F"/>
<path d="M427.268 70.4824L407.648 112.16L393.118 143.019L277.176 389.281L277.164 389.306H230.83L245.336 358.448H256.91L358.148 143.019L372.654 112.16L377.737 101.341H319.44L198.238 358.758L198.737 358.448H210.367L195.836 389.306H149.415L149.501 389.123L159.364 367.729L196.057 289.777L213.249 253.246L299.284 70.4824H427.268Z" fill="#2F2F32"/>
<path d="M277.192 389.302H277.167L277.179 389.276L277.192 389.302Z" fill="#322F2F"/>
<path d="M326.33 112.163L326.314 112.194L326.298 112.163H326.33Z" fill="#5850EC"/>
<path d="M159.377 367.733L149.514 389.127L149.428 389.309H149.219L149.323 389.09L159.377 367.733Z" fill="#322F2F"/>
<path d="M454.3 112.163L304.222 430.987H176.238L195.858 389.308L210.388 358.45L326.33 112.187L326.342 112.163H372.676L358.17 143.021H346.595L245.358 358.45L230.852 389.308L225.769 400.127H284.066L405.268 142.711L404.769 143.021H393.139L407.67 112.163H454.3Z" fill="#5850EC"/>
</g>
<path d="M563.536 408.724H596.384V290.768C596.384 275.464 591.532 262.026 582.2 251.201C564.656 230.671 539.647 220.593 506.798 220.219C478.803 220.219 453.42 228.431 430.65 245.229L447.074 270.985C462.378 257.92 482.162 251.575 506.425 251.575C520.236 251.575 533.301 254.934 545.619 261.653C557.564 268.372 563.536 278.077 563.536 290.768V304.953C550.098 295.621 525.462 287.782 504.932 287.782C479.922 287.782 459.392 293.755 443.341 306.073C427.291 318.391 419.452 333.322 419.452 351.612C419.452 369.903 427.291 384.834 442.968 396.032C458.272 407.604 478.429 413.203 503.065 413.203C527.328 413.203 547.485 406.484 563.536 393.046V408.724ZM504.559 385.207C472.084 385.207 450.434 370.65 450.434 350.493C450.434 330.336 470.59 315.405 506.425 315.405C526.955 315.405 549.725 324.363 563.536 335.935V363.184C547.112 377.742 527.328 385.207 504.559 385.207ZM677.598 408.724V117.569H643.63V408.724H677.598ZM763.627 408.724V222.832H729.658V408.724H763.627ZM768.106 151.163C768.106 139.592 758.401 130.26 746.829 130.26C734.884 130.26 725.926 139.592 725.926 151.537C725.926 163.481 734.884 172.813 746.829 172.813C758.401 172.813 768.106 163.108 768.106 151.163ZM888.476 413.203C912.739 413.203 932.522 407.977 948.573 397.152C964.624 386.327 972.463 372.143 972.463 354.225C972.463 325.483 952.679 307.566 913.112 299.727L863.839 291.142C854.881 289.275 848.535 287.036 845.176 284.05C837.71 278.077 839.203 269.865 839.203 269.492C839.203 256.8 857.867 248.215 885.116 248.215C905.646 248.215 925.803 254.187 946.333 266.132L962.384 239.63C941.107 225.819 916.471 218.726 888.849 218.726C833.604 218.726 807.101 240.75 807.101 272.105C807.101 298.981 824.272 315.778 858.24 322.497L911.245 332.575C930.282 336.308 939.988 344.147 939.988 356.092C939.988 372.516 920.577 383.714 889.222 383.714C861.973 383.714 836.217 376.249 812.701 360.944L795.53 388.193C824.272 404.991 855.254 413.203 888.476 413.203ZM1016.79 253.441V408.724H1050.38V253.441H1081.36V222.832H1050.38V133.246L1016.79 153.403V222.832H986.178V253.441H1016.79Z" fill="white"/>
<defs>
<clipPath id="clip0_19_17">
<rect width="459.129" height="503.922" fill="white" transform="translate(0.000244141 0.000183105)"/>
</clipPath>
</defs>
</svg>
