<svg width="72" height="72" viewBox="0 0 72 72" fill="none" xmlns="http://www.w3.org/2000/svg">
<g clip-path="url(#clip0_5_2)">
<path d="M56 72H16C7.178 72 0 64.822 0 56V16C0 7.178 7.178 0 16 0H56C64.822 0 72 7.178 72 16V56C72 64.822 64.822 72 56 72Z" fill="#1E88E5"/>
<path d="M59.852 22.976L46.828 36L59.85 49.022C59.938 48.694 60 48.356 60 48V24C60 23.644 59.938 23.306 59.852 22.976ZM41.376 35.798L57.024 20.148C56.694 20.062 56.356 20 56 20H16C15.644 20 15.306 20.062 14.976 20.148L30.624 35.798C33.59 38.76 38.41 38.76 41.376 35.798ZM36 42.018C33.12 42.018 30.254 40.934 28.02 38.808L14.976 51.852C15.306 51.938 15.644 52 16 52H56C56.356 52 56.694 51.938 57.024 51.852L43.98 38.808C41.746 40.934 38.88 42.018 36 42.018ZM12.148 22.976C12.062 23.306 12 23.644 12 24V48C12 48.356 12.062 48.694 12.148 49.024L25.172 36L12.148 22.976Z" fill="white"/>
</g>
<defs>
<clipPath id="clip0_5_2">
<rect width="72" height="72" fill="#1E88E5"/>
</clipPath>
</defs>
</svg>
