<svg width="40" height="40" viewBox="0 0 40 40" fill="none" xmlns="http://www.w3.org/2000/svg">
<circle cx="20" cy="20" r="20" fill="#FEF4E6"/>
<path d="M25.737 22.6227L23.311 24.8527C22.0634 25.9403 20.5976 26.7483 19.012 27.2227L19.656 30.2267C19.6889 30.38 19.7574 30.5234 19.856 30.6453C19.9545 30.7672 20.0804 30.8643 20.2234 30.9286C20.3663 30.993 20.5224 31.0228 20.6791 31.0157C20.8357 31.0086 20.9884 30.9647 21.125 30.8877L25.03 28.6857C25.5797 28.3517 26.0092 27.8518 26.2563 27.2579C26.5034 26.6641 26.5555 26.0071 26.405 25.3817L25.737 22.6227ZM15.266 16.7767L17.354 14.2967L14.75 13.6687C14.1168 13.4477 13.4249 13.4634 12.8024 13.7129C12.1798 13.9623 11.6685 14.4286 11.363 15.0257L9.163 18.9257C9.08598 19.0622 9.04214 19.215 9.03503 19.3716C9.02791 19.5282 9.05773 19.6843 9.12206 19.8273C9.1864 19.9703 9.28345 20.0961 9.40538 20.1947C9.52732 20.2933 9.67072 20.3618 9.824 20.3947L12.897 21.0537C13.4065 19.4899 14.2106 18.0381 15.266 16.7767ZM24.734 16.8167C25.0307 16.8167 25.3207 16.7287 25.5674 16.5639C25.814 16.3991 26.0063 16.1648 26.1198 15.8907C26.2334 15.6166 26.2631 15.315 26.2052 15.0241C26.1473 14.7331 26.0044 14.4658 25.7947 14.256C25.5849 14.0463 25.3176 13.9034 25.0266 13.8455C24.7357 13.7876 24.4341 13.8173 24.16 13.9309C23.8859 14.0444 23.6516 14.2367 23.4868 14.4833C23.322 14.73 23.234 15.02 23.234 15.3167C23.234 15.7145 23.392 16.096 23.6733 16.3774C23.9546 16.6587 24.3362 16.8167 24.734 16.8167Z" fill="#F79009"/>
<path d="M30.601 10.0629C30.556 9.89151 30.4662 9.7352 30.341 9.60992C30.2157 9.48464 30.0594 9.39489 29.888 9.34986C27.8368 8.81684 25.6767 8.87413 23.6567 9.51511C21.6366 10.1561 19.8387 11.3547 18.47 12.9729L15.266 16.7769C13.6657 18.6854 12.6504 21.0153 12.342 23.4869C12.3221 23.6388 12.3373 23.7933 12.3865 23.9384C12.4358 24.0836 12.5177 24.2154 12.626 24.3239L15.726 27.4239C15.819 27.5168 15.9294 27.5906 16.0508 27.6409C16.1723 27.6911 16.3025 27.717 16.434 27.7169C16.462 27.7169 16.491 27.7159 16.52 27.7129C19.0298 27.5054 21.4082 26.5036 23.31 24.8529L26.974 21.4849C28.5978 20.1196 29.8005 18.3214 30.4424 16.2994C31.0843 14.2774 31.139 12.1147 30.6 10.0629H30.601ZM24.734 16.8169C24.4373 16.8169 24.1473 16.7289 23.9007 16.5641C23.654 16.3992 23.4617 16.165 23.3482 15.8909C23.2347 15.6168 23.205 15.3152 23.2628 15.0242C23.3207 14.7333 23.4636 14.466 23.6734 14.2562C23.8831 14.0464 24.1504 13.9036 24.4414 13.8457C24.7324 13.7878 25.034 13.8175 25.308 13.931C25.5821 14.0446 25.8164 14.2368 25.9812 14.4835C26.146 14.7302 26.234 15.0202 26.234 15.3169C26.234 15.7147 26.076 16.0962 25.7947 16.3775C25.5134 16.6588 25.1318 16.8169 24.734 16.8169Z" fill="#FDDDB3"/>
</svg>
