<svg width="40" height="40" viewBox="0 0 40 40" fill="none" xmlns="http://www.w3.org/2000/svg">
<circle cx="20" cy="20" r="20" fill="#F0F5EA"/>
<path d="M26 27.9993V10.9992C25.9999 10.8241 25.9537 10.652 25.8662 10.5003C25.7786 10.3485 25.6528 10.2224 25.5012 10.1347C25.3496 10.0469 25.1776 10.0004 25.0024 10C24.8272 9.99958 24.655 10.0452 24.503 10.1322L21.5 11.8522L18.497 10.1322C18.3457 10.0456 18.1744 10 18 10C17.8256 10 17.6543 10.0456 17.503 10.1322L14.5 11.8522L11.497 10.1322C11.345 10.0452 11.1728 9.99958 10.9976 10C10.8224 10.0004 10.6504 10.0469 10.4988 10.1347C10.3472 10.2224 10.2214 10.3485 10.1338 10.5003C10.0463 10.652 10.0001 10.8241 10 10.9992V27.9993C10 28.5297 10.2107 29.0384 10.5858 29.4135C10.9609 29.7885 11.4696 29.9993 12 29.9993H28C27.4696 29.9993 26.9609 29.7885 26.5858 29.4135C26.2107 29.0384 26 28.5297 26 27.9993Z" fill="#D0E1BD"/>
<path d="M29.999 22V28C29.999 28.5304 29.7883 29.0391 29.4132 29.4142C29.0381 29.7893 28.5294 30 27.999 30C27.4686 30 26.9599 29.7893 26.5848 29.4142C26.2097 29.0391 25.999 28.5304 25.999 28V20H27.999C28.5294 20 29.0381 20.2107 29.4132 20.5858C29.7883 20.9609 29.999 21.4696 29.999 22ZM18.5 24.5H16C15.7348 24.5 15.4804 24.3946 15.2929 24.2071C15.1054 24.0196 15 23.7652 15 23.5C15 23.2348 15.1054 22.9804 15.2929 22.7929C15.4804 22.6054 15.7348 22.5 16 22.5H18.5C18.6326 22.5 18.7598 22.4473 18.8536 22.3536C18.9473 22.2598 19 22.1326 19 22C19 21.8674 18.9473 21.7402 18.8536 21.6464C18.7598 21.5527 18.6326 21.5 18.5 21.5H17.5C16.837 21.5 16.2011 21.2366 15.7322 20.7678C15.2634 20.2989 15 19.663 15 19C15 18.337 15.2634 17.7011 15.7322 17.2322C16.2011 16.7634 16.837 16.5 17.5 16.5H20C20.2652 16.5 20.5196 16.6054 20.7071 16.7929C20.8946 16.9804 21 17.2348 21 17.5C21 17.7652 20.8946 18.0196 20.7071 18.2071C20.5196 18.3946 20.2652 18.5 20 18.5H17.5C17.3674 18.5 17.2402 18.5527 17.1464 18.6464C17.0527 18.7402 17 18.8674 17 19C17 19.1326 17.0527 19.2598 17.1464 19.3536C17.2402 19.4473 17.3674 19.5 17.5 19.5H18.5C19.163 19.5 19.7989 19.7634 20.2678 20.2322C20.7366 20.7011 21 21.337 21 22C21 22.663 20.7366 23.2989 20.2678 23.7678C19.7989 24.2366 19.163 24.5 18.5 24.5Z" fill="#669F2A"/>
<path d="M18 18.5C17.735 18.5 17.4808 18.3948 17.2932 18.2075C17.1057 18.0201 17.0003 17.766 17 17.501V16C17 15.7348 17.1054 15.4804 17.2929 15.2929C17.4804 15.1054 17.7348 15 18 15C18.2652 15 18.5196 15.1054 18.7071 15.2929C18.8946 15.4804 19 15.7348 19 16V17.5C19 17.765 18.8948 18.0192 18.7075 18.2068C18.5201 18.3943 18.266 18.4997 18.001 18.5H18ZM18 26C17.735 26 17.4808 25.8948 17.2932 25.7075C17.1057 25.5201 17.0003 25.266 17 25.001V23.5C17 23.2348 17.1054 22.9804 17.2929 22.7929C17.4804 22.6054 17.7348 22.5 18 22.5C18.2652 22.5 18.5196 22.6054 18.7071 22.7929C18.8946 22.9804 19 23.2348 19 23.5V25C19 25.265 18.8948 25.5192 18.7075 25.7068C18.5201 25.8943 18.266 25.9997 18.001 26H18Z" fill="#669F2A"/>
</svg>
