<svg width="40" height="40" viewBox="0 0 40 40" fill="none" xmlns="http://www.w3.org/2000/svg">
<circle cx="20" cy="20" r="20" fill="#FBFBFF"/>
<path d="M17.5 30C16.9696 30 16.4609 29.7893 16.0858 29.4142C15.7107 29.0391 15.5 28.5304 15.5 28C15.5 27.4696 15.7107 26.9609 16.0858 26.5858C16.4609 26.2107 16.9696 26 17.5 26C18.0304 26 18.5391 26.2107 18.9142 26.5858C19.2893 26.9609 19.5 27.4696 19.5 28C19.5 28.5304 19.2893 29.0391 18.9142 29.4142C18.5391 29.7893 18.0304 30 17.5 30ZM25.5 30C24.9696 30 24.4609 29.7893 24.0858 29.4142C23.7107 29.0391 23.5 28.5304 23.5 28C23.5 27.4696 23.7107 26.9609 24.0858 26.5858C24.4609 26.2107 24.9696 26 25.5 26C26.0304 26 26.5391 26.2107 26.9142 26.5858C27.2893 26.9609 27.5 27.4696 27.5 28C27.5 28.5304 27.2893 29.0391 26.9142 29.4142C26.5391 29.7893 26.0304 30 25.5 30Z" fill="#CBC9F9"/>
<path d="M16.18 22C15.9599 22 15.7459 21.9274 15.5712 21.7934C15.3966 21.6595 15.271 21.4716 15.214 21.259L12.733 12H11.5C11.2348 12 10.9804 11.8946 10.7929 11.7071C10.6054 11.5196 10.5 11.2652 10.5 11C10.5 10.7348 10.6054 10.4804 10.7929 10.2929C10.9804 10.1054 11.2348 10 11.5 10V10.001H13.5C13.7201 10.001 13.9341 10.0736 14.1088 10.2076C14.2834 10.3415 14.409 10.5294 14.466 10.742L16.947 20H26.5C27.2956 20 28.0587 20.3161 28.6213 20.8787C29.1839 21.4413 29.5 22.2044 29.5 23C29.5 23.7956 29.1839 24.5587 28.6213 25.1213C28.0587 25.6839 27.2956 26 26.5 26H13.5C13.2348 26 12.9804 25.8946 12.7929 25.7071C12.6054 25.5196 12.5 25.2652 12.5 25C12.5 24.7348 12.6054 24.4804 12.7929 24.2929C12.9804 24.1054 13.2348 24 13.5 24H26.5C26.7652 24 27.0196 23.8946 27.2071 23.7071C27.3946 23.5196 27.5 23.2652 27.5 23C27.5 22.7348 27.3946 22.4804 27.2071 22.2929C27.0196 22.1054 26.7652 22 26.5 22H16.18Z" fill="#5850EC"/>
<path d="M16.947 20H26.5C26.879 20.001 27.253 20.075 27.604 20.217L29.466 13.259C29.5057 13.1108 29.5109 12.9555 29.4809 12.805C29.451 12.6545 29.3869 12.513 29.2935 12.3913C29.2001 12.2696 29.08 12.171 28.9424 12.1031C28.8048 12.0353 28.6534 12 28.5 12H14.803L16.947 20Z" fill="#DEDCFB"/>
</svg>
